<svg version="1.1" xmlns="http://www.w3.org/2000/svg" xmlns:xlink="http://www.w3.org/1999/xlink" width="91px" height="91px" viewBox="0,0,256,256"><g fill="#d1c0d8" fill-rule="nonzero" stroke="none" stroke-width="1" stroke-linecap="butt" stroke-linejoin="miter" stroke-miterlimit="10" stroke-dasharray="" stroke-dashoffset="0" font-family="none" font-weight="none" font-size="none" text-anchor="none" style="mix-blend-mode: normal"><g transform="translate(0.28377,0) scale(2.81319,2.81319)"><path d="M45.7,76.7v0c-11.1,0 -21.5,-6 -27.1,-15.6c-8.6,-14.9 -3.5,-34 11.4,-42.6c4.7,-2.7 10.1,-4.2 15.6,-4.2c3.6,0 7.2,0.6 10.6,1.9c1.9,0.7 3,2.7 2.5,4.7c-1.3,5.4 -0.5,11 2.3,15.8c2.8,4.8 7.2,8.3 12.5,9.9c2,0.6 3.2,2.5 2.8,4.5c-1.6,9.1 -7.1,16.9 -15.1,21.5c-4.6,2.7 -10,4.1 -15.5,4.1zM45.7,22.3c-4,0 -8,1.1 -11.6,3.1c-11.1,6.4 -14.9,20.6 -8.5,31.7c4.1,7.2 11.8,11.6 20.1,11.6v0c4,0 8.1,-1.1 11.6,-3.1c5,-2.9 8.6,-7.4 10.4,-12.8c-5.7,-2.5 -10.4,-6.7 -13.6,-12.2c-3.1,-5.5 -4.4,-11.7 -3.8,-17.9c-1.5,-0.3 -3,-0.4 -4.6,-0.4z"></path></g></g></svg>