<svg version="1.1" xmlns="http://www.w3.org/2000/svg" xmlns:xlink="http://www.w3.org/1999/xlink" width="91px" height="91px" viewBox="0,0,256,256"><g fill="#6dabd1" fill-rule="nonzero" stroke="none" stroke-width="1" stroke-linecap="butt" stroke-linejoin="miter" stroke-miterlimit="10" stroke-dasharray="" stroke-dashoffset="0" font-family="none" font-weight="none" font-size="none" text-anchor="none" style="mix-blend-mode: normal"><g transform="translate(0.13356,0) scale(2.81319,2.81319)"><g><path d="M51.5,48.3h-1.1c-0.4,-1.6 -1,-3.4 -2,-5.3c-3.3,-6.2 -9.2,-9.6 -16.5,-9.6c-7.4,0 -13.3,3.4 -16.5,9.6c-1,2 -1.6,4 -2,5.6c-7.8,1.4 -13.2,7.6 -13.2,15.7c0,8.1 5.8,14.5 13.8,15.8c0.4,0.1 0.9,0.2 1.3,0.2h36.2c9.5,0 16.7,-6.9 16.7,-16c0,-9.3 -7,-16 -16.7,-16zM51.5,72.3h-34.6c-6,0 -8.7,-4.1 -8.7,-8c0,-4.8 3.5,-8 8.7,-8c2.1,0 3.9,-1.7 4,-3.9c0,0 0.1,-3.1 1.7,-6c1.8,-3.4 4.9,-5.1 9.2,-5.1c4.4,0 7.5,1.7 9.4,5.1c1.6,2.9 1.8,6 1.8,6c0.1,2.1 1.9,3.8 4,3.8h4.5c5.2,0 8.7,3.2 8.7,8c0,3.9 -2.7,8.1 -8.7,8.1z"></path><path d="M74.3,42.8c0,-8.6 -7,-15.6 -15.6,-15.6c-3.1,0 -6.2,0.9 -8.7,2.7c-1.4,0.9 -1.7,2.8 -0.8,4.2c0.9,1.4 2.8,1.7 4.2,0.8c1.6,-1.1 3.5,-1.6 5.4,-1.6c5.3,0 9.6,4.3 9.6,9.6c0,1.6 -0.4,3.1 -1.1,4.4c-0.8,1.5 -0.2,3.3 1.3,4c0.4,0.2 0.9,0.3 1.4,0.3c1.1,0 2.1,-0.6 2.7,-1.6c1,-2.2 1.6,-4.7 1.6,-7.2z"></path><path d="M58.7,22.4c1.7,0 3,-1.3 3,-3v-5.7c0,-1.7 -1.3,-3 -3,-3c-1.7,0 -3,1.3 -3,3v5.7c0,1.7 1.4,3 3,3z"></path><path d="M87.8,39.8h-5.8c-1.7,0 -3,1.3 -3,3c0,1.7 1.3,3 3,3h5.7c1.7,0 3,-1.3 3,-3c0.1,-1.7 -1.3,-3 -2.9,-3z"></path><path d="M75.2,29.3c0.8,0 1.5,-0.3 2.1,-0.9l4,-4c1.2,-1.2 1.2,-3.1 0,-4.2c-1.2,-1.2 -3.1,-1.2 -4.2,0l-4,4c-1.2,1.2 -1.2,3.1 0,4.2c0.6,0.6 1.3,0.9 2.1,0.9z"></path><path d="M77.3,57.2c-1.2,-1.2 -3.1,-1.2 -4.2,0c-1.2,1.2 -1.2,3.1 0,4.2l4,4c0.6,0.6 1.4,0.9 2.1,0.9c0.8,0 1.5,-0.3 2.1,-0.9c1.2,-1.2 1.2,-3.1 0,-4.2z"></path><path d="M40.1,28.4c0.6,0.6 1.4,0.9 2.1,0.9c0.8,0 1.5,-0.3 2.1,-0.9c1.2,-1.2 1.2,-3.1 0,-4.2l-4,-4c-1.2,-1.2 -3.1,-1.2 -4.2,0c-1.2,1.2 -1.2,3.1 0,4.2z"></path></g></g></g></svg>