<svg version="1.1" xmlns="http://www.w3.org/2000/svg" xmlns:xlink="http://www.w3.org/1999/xlink" width="91px" height="91px" viewBox="0,0,256,256"><g fill="#ffc400" fill-rule="nonzero" stroke="none" stroke-width="1" stroke-linecap="butt" stroke-linejoin="miter" stroke-miterlimit="10" stroke-dasharray="" stroke-dashoffset="0" font-family="none" font-weight="none" font-size="none" text-anchor="none" style="mix-blend-mode: normal"><g transform="scale(2.81319,2.81319)"><g><path d="M45.5,23.5c-12.1,0 -22,9.9 -22,22c0,12.1 9.9,22 22,22c12.1,0 22,-9.9 22,-22c0,-12.1 -9.9,-22 -22,-22zM45.5,59.5c-7.7,0 -14,-6.3 -14,-14c0,-7.7 6.3,-14 14,-14c7.7,0 14,6.3 14,14c0,7.7 -6.3,14 -14,14z"></path><path d="M45.5,16.2c2.2,0 4,-1.8 4,-4v-8.1c0,-2.2 -1.8,-4 -4,-4c-2.2,0 -4,1.8 -4,4v8.1c0,2.3 1.8,4 4,4z"></path><path d="M86.9,41.5h-8.1c-2.2,0 -4,1.8 -4,4c0,2.2 1.8,4 4,4h8.1c2.2,0 4,-1.8 4,-4c0,-2.2 -1.8,-4 -4,-4z"></path><path d="M45.5,74.8c-2.2,0 -4,1.8 -4,4v8.1c0,2.2 1.8,4 4,4c2.2,0 4,-1.8 4,-4v-8.1c0,-2.3 -1.8,-4 -4,-4z"></path><path d="M16.2,45.5c0,-2.2 -1.8,-4 -4,-4h-8.1c-2.2,0 -4,1.8 -4,4c0,2.2 1.8,4 4,4h8.1c2.3,0 4,-1.8 4,-4z"></path><path d="M69,26c1,0 2,-0.4 2.8,-1.2l5.8,-5.8c1.6,-1.6 1.6,-4.1 0,-5.7c-1.6,-1.6 -4.1,-1.6 -5.7,0l-5.8,5.8c-1.6,1.6 -1.6,4.1 0,5.7c0.9,0.8 1.9,1.2 2.9,1.2z"></path><path d="M71.8,66.2c-1.6,-1.6 -4.1,-1.6 -5.7,0c-1.6,1.6 -1.6,4.1 0,5.7l5.8,5.8c0.8,0.8 1.8,1.2 2.8,1.2c1,0 2,-0.4 2.8,-1.2c1.6,-1.6 1.6,-4.1 0,-5.7z"></path><path d="M19.2,66.2l-5.8,5.8c-1.6,1.6 -1.6,4.1 0,5.7c0.8,0.8 1.8,1.2 2.8,1.2c1,0 2,-0.4 2.8,-1.2l5.8,-5.8c1.6,-1.6 1.6,-4.1 0,-5.7c-1.5,-1.6 -4.1,-1.6 -5.6,0z"></path><path d="M19.2,24.8c0.7,0.8 1.8,1.2 2.8,1.2c1,0 2,-0.4 2.8,-1.2c1.6,-1.6 1.6,-4.1 0,-5.7l-5.8,-5.8c-1.6,-1.6 -4.1,-1.6 -5.7,0c-1.6,1.6 -1.6,4.1 0,5.7z"></path></g></g></g></svg>