<svg version="1.1" xmlns="http://www.w3.org/2000/svg" xmlns:xlink="http://www.w3.org/1999/xlink" width="91px" height="91px" viewBox="0,0,256,256"><g fill="#6dabd1" fill-rule="nonzero" stroke="none" stroke-width="1" stroke-linecap="butt" stroke-linejoin="miter" stroke-miterlimit="10" stroke-dasharray="" stroke-dashoffset="0" font-family="none" font-weight="none" font-size="none" text-anchor="none" style="mix-blend-mode: normal"><g transform="scale(2.81319,2.81319)"><g><path d="M23.8,54.8c-1.9,-0.5 -3.8,0.6 -4.3,2.5l-3.4,12.6c-0.5,1.9 0.6,3.8 2.5,4.3c0.3,0.1 0.6,0.1 0.9,0.1c1.5,0 3,-1 3.4,-2.6l3.4,-12.6c0.4,-1.8 -0.7,-3.8 -2.5,-4.3z"></path><path d="M14.7,76.8c-0.6,0.7 -1,1.5 -1,2.5c0,0.9 0.4,1.8 1,2.5c0.7,0.6 1.6,1 2.5,1c0.9,0 1.8,-0.4 2.5,-1c0.7,-0.7 1,-1.6 1,-2.5c0,-0.9 -0.4,-1.8 -1,-2.5c-1.4,-1.3 -3.7,-1.3 -5,0z"></path><path d="M23.9,84.5c-0.7,0.6 -1,1.6 -1,2.5c0,0.9 0.4,1.8 1,2.5c0.7,0.6 1.6,1 2.5,1c0.9,0 1.8,-0.4 2.5,-1c0.6,-0.7 1,-1.6 1,-2.5c0,-0.9 -0.4,-1.8 -1,-2.5c-1.4,-1.3 -3.7,-1.3 -5,0z"></path><path d="M37.2,76.8c-0.7,0.7 -1,1.5 -1,2.5c0,0.9 0.4,1.8 1,2.5c0.6,0.6 1.5,1 2.5,1c0.9,0 1.8,-0.4 2.5,-1c0.7,-0.7 1,-1.6 1,-2.5c0,-0.9 -0.4,-1.8 -1,-2.5c-1.3,-1.3 -3.7,-1.3 -5,0z"></path><path d="M33,62.5c-1.9,-0.5 -3.8,0.6 -4.3,2.5l-3.4,12.6c-0.5,1.9 0.6,3.8 2.5,4.3c0.3,0.1 0.6,0.1 0.9,0.1c1.5,0 3,-1 3.4,-2.6l3.4,-12.6c0.5,-1.8 -0.7,-3.8 -2.5,-4.3z"></path><path d="M46.3,54.8c-1.9,-0.5 -3.8,0.6 -4.3,2.5l-3.4,12.6c-0.5,1.9 0.6,3.8 2.5,4.3c0.3,0.1 0.6,0.1 0.9,0.1c1.5,0 3,-1 3.4,-2.6l3.4,-12.6c0.5,-1.8 -0.6,-3.8 -2.5,-4.3z"></path><path d="M74.4,32.5c0,-8.6 -7,-15.6 -15.6,-15.6c-3.1,0 -6.2,0.9 -8.7,2.7c-1.4,0.9 -1.7,2.8 -0.8,4.2c0.9,1.4 2.8,1.7 4.2,0.8c1.6,-1.1 3.5,-1.6 5.4,-1.6c5.3,0 9.6,4.3 9.6,9.6c0,1.6 -0.4,3.1 -1.1,4.4c-0.8,1.5 -0.2,3.3 1.3,4c0.4,0.2 0.9,0.3 1.4,0.3c1.1,0 2.1,-0.6 2.7,-1.6c1,-2.2 1.6,-4.7 1.6,-7.2z"></path><path d="M58.8,12.2c1.7,0 3,-1.3 3,-3v-5.7c0,-1.7 -1.3,-3 -3,-3c-1.7,0 -3,1.3 -3,3v5.7c0,1.7 1.3,3 3,3z"></path><path d="M87.8,29.5h-5.7c-1.7,0 -3,1.3 -3,3c0,1.7 1.3,3 3,3h5.7c1.7,0 3,-1.3 3,-3c0,-1.7 -1.3,-3 -3,-3z"></path><path d="M75.3,19c0.8,0 1.5,-0.3 2.1,-0.9l4,-4c1.2,-1.2 1.2,-3.1 0,-4.2c-1.2,-1.2 -3.1,-1.2 -4.2,0l-4,4c-1.2,1.2 -1.2,3.1 0,4.2c0.5,0.6 1.3,0.9 2.1,0.9z"></path><path d="M77.4,46.9c-1.2,-1.2 -3.1,-1.2 -4.2,0c-1.2,1.2 -1.2,3.1 0,4.2l4,4c0.6,0.6 1.4,0.9 2.1,0.9c0.8,0 1.5,-0.3 2.1,-0.9c1.2,-1.2 1.2,-3.1 0,-4.2z"></path><path d="M40.1,18.2c0.6,0.6 1.4,0.9 2.1,0.9c0.8,0 1.5,-0.3 2.1,-0.9c1.2,-1.2 1.2,-3.1 0,-4.2l-4,-4c-1.2,-1.2 -3.1,-1.2 -4.2,0c-1.2,1.2 -1.2,3.1 0,4.2z"></path><path d="M51.5,38.1h-1.1c-0.4,-1.6 -1,-3.4 -2,-5.3c-3.3,-6.2 -9.2,-9.6 -16.5,-9.6c-7.4,0 -13.3,3.4 -16.5,9.6c-1,2 -1.6,4 -2,5.6c-7.9,1.4 -13.2,7.5 -13.2,15.7c0,5.2 2.5,10 6.6,12.9c1.8,1.3 4.3,0.9 5.6,-0.9c1.3,-1.8 0.9,-4.3 -0.9,-5.6c-2,-1.4 -3.2,-3.8 -3.2,-6.4c0,-4.8 3.5,-8 8.7,-8c2.2,0 3.9,-1.7 4,-3.9c0,-1.1 0.6,-11.1 10.9,-11.1c4.4,0 7.5,1.7 9.4,5.1c1.6,2.9 1.8,6 1.8,6c0.1,2.1 1.9,3.8 4,3.8h4.5c5.2,0 8.7,3.2 8.7,8c0,4 -2.6,7 -6.5,7.8c-2.2,0.4 -3.6,2.5 -3.2,4.7c0.4,1.9 2,3.2 3.9,3.2c0.3,0 0.5,0 0.8,-0.1c7.7,-1.5 13,-7.9 13,-15.7c-0.1,-9.1 -7.1,-15.8 -16.8,-15.8z"></path></g></g></g></svg>